<?xml version="1.0" encoding="UTF-8"?>
<svg width="256px" height="256px" viewBox="0 0 256 256" version="1.1" xmlns="http://www.w3.org/2000/svg" xmlns:xlink="http://www.w3.org/1999/xlink">
  <svg width="256px" height="256px" viewBox="0 0 256 256" id="menu">
 <g   >
            <g transform="translate(10.000000, 44.000000)" >
                <polygon points="0 -1.42108547e-14 236 -1.42108547e-14 236 33.7142857 0 33.7142857"/>
                <polygon points="0 67.4285714 236 67.4285714 236 101.142857 0 101.142857"/>
                <polygon points="0 134.857143 236 134.857143 236 168.571429 0 168.571429"/>
            </g>
        </g><g transform="translate(10.000000, 44.000000)" >
                <polygon points="0 -1.42108547e-14 236 -1.42108547e-14 236 33.7142857 0 33.7142857"/>
                <polygon points="0 67.4285714 236 67.4285714 236 101.142857 0 101.142857"/>
                <polygon points="0 134.857143 236 134.857143 236 168.571429 0 168.571429"/>
            </g>
</svg>

</svg>
